<svg width="1024" height="1024" viewBox="0 0 1024 1024" xmlns="http://www.w3.org/2000/svg">
  <defs>
    <linearGradient id="bg" x1="0" y1="0" x2="1" y2="1">
      <stop offset="0%" stop-color="#56034C"/>
      <stop offset="100%" stop-color="#EB1254"/>
    </linearGradient>
    <filter id="shadow" x="-5%" y="-5%" width="120%" height="120%">
      <feDropShadow dx="0" dy="12" stdDeviation="16" flood-color="#000" flood-opacity="0.2"/>
    </filter>
  </defs>
  <!-- Background -->
  <rect width="1024" height="1024" fill="url(#bg)"/>
  
  <!-- Stylized F -->
  <path d="M 360 260 
           L 720 260 
           C 742 260 760 278 760 300 
           L 760 380 
           C 760 402 742 420 720 420 
           L 480 420 
           L 480 460 
           L 660 460 
           C 682 460 700 478 700 500 
           L 700 580 
           C 700 602 682 620 660 620 
           L 480 620 
           L 480 740 
           C 480 762 462 780 440 780 
           L 360 780 
           C 338 780 320 762 320 740 
           L 320 300 
           C 320 278 338 260 360 260 Z" 
        fill="#ffffff" 
        filter="url(#shadow)"/>
</svg>
